@startuml
class TflApiCommonJourneyPlannerJpElevation <<partial>> {
    + TflApiCommonJourneyPlannerJpElevation(distance:int?, startLat:double?, startLon:double?, endLat:double?, endLon:double?, heightFromPreviousPoint:int?, gradient:double?)
    + Distance : int? <<get>> <<set>>
    + StartLat : double? <<get>> <<set>>
    + StartLon : double? <<get>> <<set>>
    + EndLat : double? <<get>> <<set>>
    + EndLon : double? <<get>> <<set>>
    + HeightFromPreviousPoint : int? <<get>> <<set>>
    + Gradient : double? <<get>> <<set>>
    + <<override>> ToString() : string
    + <<virtual>> ToJson() : string
    + <<override>> Equals(input:object) : bool
    + Equals(input:TflApiCommonJourneyPlannerJpElevation) : bool
    + <<override>> GetHashCode() : int
}
class "IEquatable`1"<T> {
}
"IEquatable`1" "<TflApiCommonJourneyPlannerJpElevation>" <|-- TflApiCommonJourneyPlannerJpElevation
IValidatableObject <|-- TflApiCommonJourneyPlannerJpElevation
@enduml
