@startuml
class TflApiPresentationEntitiesStopPointCategory <<partial>> {
    + TflApiPresentationEntitiesStopPointCategory(category:string, availableKeys:List<string>)
    + Category : string <<get>> <<set>>
    + <<override>> ToString() : string
    + <<virtual>> ToJson() : string
    + <<override>> Equals(input:object) : bool
    + Equals(input:TflApiPresentationEntitiesStopPointCategory) : bool
    + <<override>> GetHashCode() : int
}
class "IEquatable`1"<T> {
}
class "List`1"<T> {
}
"IEquatable`1" "<TflApiPresentationEntitiesStopPointCategory>" <|-- TflApiPresentationEntitiesStopPointCategory
IValidatableObject <|-- TflApiPresentationEntitiesStopPointCategory
TflApiPresentationEntitiesStopPointCategory --> "AvailableKeys<string>" "List`1"
@enduml
