@startuml
class TflApiPresentationEntitiesSchedule <<partial>> {
    + TflApiPresentationEntitiesSchedule(name:string, knownJourneys:List<TflApiPresentationEntitiesKnownJourney>, firstJourney:TflApiPresentationEntitiesKnownJourney, lastJourney:TflApiPresentationEntitiesKnownJourney, periods:List<TflApiPresentationEntitiesPeriod>)
    + Name : string <<get>> <<set>>
    + <<override>> ToString() : string
    + <<virtual>> ToJson() : string
    + <<override>> Equals(input:object) : bool
    + Equals(input:TflApiPresentationEntitiesSchedule) : bool
    + <<override>> GetHashCode() : int
}
class "IEquatable`1"<T> {
}
class "List`1"<T> {
}
"IEquatable`1" "<TflApiPresentationEntitiesSchedule>" <|-- TflApiPresentationEntitiesSchedule
IValidatableObject <|-- TflApiPresentationEntitiesSchedule
TflApiPresentationEntitiesSchedule --> "KnownJourneys<TflApiPresentationEntitiesKnownJourney>" "List`1"
TflApiPresentationEntitiesSchedule --> "FirstJourney" TflApiPresentationEntitiesKnownJourney
TflApiPresentationEntitiesSchedule --> "LastJourney" TflApiPresentationEntitiesKnownJourney
TflApiPresentationEntitiesSchedule --> "Periods<TflApiPresentationEntitiesPeriod>" "List`1"
@enduml
