@startuml
class TflApiPresentationEntitiesPathAttribute <<partial>> {
    + TflApiPresentationEntitiesPathAttribute(name:string, value:string)
    + Name : string <<get>> <<set>>
    + Value : string <<get>> <<set>>
    + <<override>> ToString() : string
    + <<virtual>> ToJson() : string
    + <<override>> Equals(input:object) : bool
    + Equals(input:TflApiPresentationEntitiesPathAttribute) : bool
    + <<override>> GetHashCode() : int
}
class "IEquatable`1"<T> {
}
"IEquatable`1" "<TflApiPresentationEntitiesPathAttribute>" <|-- TflApiPresentationEntitiesPathAttribute
IValidatableObject <|-- TflApiPresentationEntitiesPathAttribute
@enduml
