@startuml
class TflApiPresentationEntitiesMatchedRoute <<partial>> {
    + TflApiPresentationEntitiesMatchedRoute(routeCode:string, name:string, direction:string, originationName:string, destinationName:string, originator:string, destination:string, serviceType:string, validTo:DateTime?, validFrom:DateTime?)
    + RouteCode : string <<get>> <<set>>
    + Name : string <<get>> <<set>>
    + Direction : string <<get>> <<set>>
    + OriginationName : string <<get>> <<set>>
    + DestinationName : string <<get>> <<set>>
    + Originator : string <<get>> <<set>>
    + Destination : string <<get>> <<set>>
    + ServiceType : string <<get>> <<set>>
    + ValidTo : DateTime? <<get>> <<set>>
    + ValidFrom : DateTime? <<get>> <<set>>
    + <<override>> ToString() : string
    + <<virtual>> ToJson() : string
    + <<override>> Equals(input:object) : bool
    + Equals(input:TflApiPresentationEntitiesMatchedRoute) : bool
    + <<override>> GetHashCode() : int
}
class "IEquatable`1"<T> {
}
"IEquatable`1" "<TflApiPresentationEntitiesMatchedRoute>" <|-- TflApiPresentationEntitiesMatchedRoute
IValidatableObject <|-- TflApiPresentationEntitiesMatchedRoute
@enduml
